<svg xmlns="http://www.w3.org/2000/svg" viewBox="0 0 512 512" role="img" aria-labelledby="title desc">
  <title id="title">i-Buk bookmark shield icon</title>
  <desc id="desc">A deep green shield with a warm bookmark and a small knowledge star.</desc>
  <defs>
    <linearGradient id="bg" x1="0" y1="0" x2="1" y2="1">
      <stop offset="0" stop-color="#f0a268"/>
      <stop offset="1" stop-color="#d66743"/>
    </linearGradient>
    <filter id="shadow" x="-20%" y="-20%" width="140%" height="140%">
      <feDropShadow dx="0" dy="16" stdDeviation="13" flood-color="#173d36" flood-opacity=".2"/>
    </filter>
  </defs>
  <rect width="512" height="512" rx="116" fill="url(#bg)"/>
  <path d="M256 88 385 137v108c0 91-52 145-129 181-77-36-129-90-129-181V137z" fill="#1f5147" filter="url(#shadow)"/>
  <path d="M212 154h88v183l-44-31-44 31z" fill="#fbf5e9"/>
  <path d="m256 179 12 32 34 2-27 21 9 33-28-18-28 18 9-33-27-21 34-2z" fill="#f0a268"/>
  <path d="M256 399c-57-29-91-69-101-120" fill="none" stroke="#6c9a86" stroke-width="10" stroke-linecap="round" opacity=".8"/>
  <circle cx="342" cy="155" r="9" fill="#f8d277"/>
  <circle cx="370" cy="181" r="5" fill="#f8d277"/>
</svg>